<svg width="40" height="40" viewBox="0 0 40 40" fill="none" xmlns="http://www.w3.org/2000/svg">
<path d="M20 0C31.0457 0 40 8.9543 40 20C40 31.0457 31.0457 40 20 40C8.9543 40 0 31.0457 0 20C0 8.9543 8.9543 0 20 0ZM20 9.5C19.1716 9.5 18.5 10.1716 18.5 11V18.5H11C10.1716 18.5 9.5 19.1716 9.5 20C9.5 20.8284 10.1716 21.5 11 21.5H18.5V29C18.5 29.8284 19.1716 30.5 20 30.5C20.8284 30.5 21.5 29.8284 21.5 29V21.5H29C29.8284 21.5 30.5 20.8284 30.5 20C30.5 19.1716 29.8284 18.5 29 18.5H21.5V11C21.5 10.1716 20.8284 9.5 20 9.5Z" fill="#252525"/>
</svg>
