<svg width="20" height="20" viewBox="0 0 20 20" fill="none" xmlns="http://www.w3.org/2000/svg">
<path d="M10 0C15.5227 0.000138888 20 4.47724 20 10C19.9999 15.5226 15.5226 19.9999 10 20C4.47724 20 0.000138892 15.5227 0 10C0 4.47715 4.47715 0 10 0ZM10 4.5C9.44772 4.5 9 4.94772 9 5.5V9H5.5C4.94772 9 4.5 9.44772 4.5 10C4.50026 10.5521 4.94788 11 5.5 11H9V14.5C9.00026 15.0521 9.44788 15.5 10 15.5C10.552 15.4999 10.9997 15.052 11 14.5V11H14.5C15.052 10.9999 15.4997 10.552 15.5 10C15.5 9.4478 15.0522 9.00013 14.5 9H11V5.5C11 4.9478 10.5522 4.50013 10 4.5Z" fill="#252525"/>
</svg>
