<svg width="24" height="24" viewBox="0 0 24 24" fill="none" xmlns="http://www.w3.org/2000/svg">
<path d="M18.5 2H5.5C4.95 2 4.5 2.45 4.5 3V21C4.5 21.55 4.95 22 5.5 22H10.5V18.2C10.5 18.09 10.59 18 10.7 18H13.3C13.41 18 13.5 18.09 13.5 18.2V22H18.5C19.05 22 19.5 21.55 19.5 21V3C19.5 2.45 19.05 2 18.5 2ZM9.51 15.24C9.51 15.35 9.42 15.44 9.31 15.44H7.71C7.6 15.44 7.51 15.35 7.51 15.24V14.14C7.51 14.03 7.6 13.94 7.71 13.94H9.31C9.42 13.94 9.51 14.03 9.51 14.14V15.24ZM9.51 12.26C9.51 12.37 9.42 12.46 9.31 12.46H7.71C7.6 12.46 7.51 12.37 7.51 12.26V11.16C7.51 11.05 7.6 10.96 7.71 10.96H9.31C9.42 10.96 9.51 11.05 9.51 11.16V12.26ZM9.51 9.28C9.51 9.39 9.42 9.48 9.31 9.48H7.71C7.6 9.48 7.51 9.39 7.51 9.28V8.18C7.51 8.07 7.6 7.98 7.71 7.98H9.31C9.42 7.98 9.51 8.07 9.51 8.18V9.28ZM9.51 6.3C9.51 6.41 9.42 6.5 9.31 6.5H7.71C7.6 6.5 7.51 6.41 7.51 6.3V5.2C7.51 5.09 7.6 5 7.71 5H9.31C9.42 5 9.51 5.09 9.51 5.2V6.3ZM13 15.23C13 15.34 12.91 15.43 12.8 15.43H11.2C11.09 15.43 11 15.34 11 15.23V14.13C11 14.02 11.09 13.93 11.2 13.93H12.8C12.91 13.93 13 14.02 13 14.13V15.23ZM13 12.25C13 12.36 12.91 12.45 12.8 12.45H11.2C11.09 12.45 11 12.36 11 12.25V11.15C11 11.04 11.09 10.95 11.2 10.95H12.8C12.91 10.95 13 11.04 13 11.15V12.25ZM13 9.27C13 9.38 12.91 9.47 12.8 9.47H11.2C11.09 9.47 11 9.38 11 9.27V8.17C11 8.06 11.09 7.97 11.2 7.97H12.8C12.91 7.97 13 8.06 13 8.17V9.27ZM13 6.29C13 6.4 12.91 6.49 12.8 6.49H11.2C11.09 6.49 11 6.4 11 6.29V5.19C11 5.08 11.09 4.99 11.2 4.99H12.8C12.91 4.99 13 5.08 13 5.19V6.29ZM16.49 15.22C16.49 15.33 16.4 15.42 16.29 15.42H14.69C14.58 15.42 14.49 15.33 14.49 15.22V14.12C14.49 14.01 14.58 13.92 14.69 13.92H16.29C16.4 13.92 16.49 14.01 16.49 14.12V15.22ZM16.49 12.24C16.49 12.35 16.4 12.44 16.29 12.44H14.69C14.58 12.44 14.49 12.35 14.49 12.24V11.14C14.49 11.03 14.58 10.94 14.69 10.94H16.29C16.4 10.94 16.49 11.03 16.49 11.14V12.24ZM16.49 9.26C16.49 9.37 16.4 9.46 16.29 9.46H14.69C14.58 9.46 14.49 9.37 14.49 9.26V8.16C14.49 8.05 14.58 7.96 14.69 7.96H16.29C16.4 7.96 16.49 8.05 16.49 8.16V9.26ZM16.49 6.28C16.49 6.39 16.4 6.48 16.29 6.48H14.69C14.58 6.48 14.49 6.39 14.49 6.28V5.18C14.49 5.07 14.58 4.98 14.69 4.98H16.29C16.4 4.98 16.49 5.07 16.49 5.18V6.28Z" fill="#252525"/>
</svg>
