<svg width="24" height="24" viewBox="0 0 24 24" fill="none" xmlns="http://www.w3.org/2000/svg">
<path d="M20.667 4C21.7716 4 22.667 4.89543 22.667 6V18C22.667 19.1046 21.7716 20 20.667 20H3.33398C2.22942 20 1.33398 19.1046 1.33398 18V6C1.33398 4.89543 2.22941 4 3.33398 4H20.667ZM8.26758 11.915C6.20536 11.915 4.53418 13.5646 4.53418 15.6055V15.9824H12.001V15.6055C12.001 13.5647 10.3296 11.9153 8.26758 11.915ZM16.6855 8.84277C15.9574 8.84277 15.3196 8.98199 14.7734 9.26074C14.2274 9.5338 13.8065 9.92656 13.5107 10.4385C13.215 10.9448 13.0674 11.5338 13.0674 12.2051C13.0674 13.1492 13.374 13.8777 13.9883 14.3896C14.6084 14.9016 15.4882 15.1572 16.626 15.1572C17.007 15.1572 17.4197 15.1032 17.8633 14.9951C18.3125 14.8871 18.6369 14.7623 18.8359 14.6201L18.7246 14.2354C18.4857 14.3605 18.1447 14.4748 17.7012 14.5771C17.2633 14.6795 16.8932 14.7304 16.5918 14.7305C15.7897 14.7305 15.1716 14.5113 14.7393 14.0732C14.3072 13.6353 14.0909 13.0125 14.0908 12.2051C14.0908 11.6077 14.1936 11.0925 14.3984 10.6602C14.6089 10.2223 14.9073 9.88654 15.2939 9.65332C15.6865 9.42008 16.1508 9.30371 16.6855 9.30371C17.1632 9.30375 17.5812 9.39733 17.9395 9.58496C18.3035 9.77269 18.5851 10.0376 18.7842 10.3789C18.9832 10.7201 19.083 11.1152 19.083 11.5645C19.083 12.0878 18.9947 12.5095 18.8184 12.8281C18.6421 13.1406 18.409 13.2968 18.1191 13.2969C17.9883 13.2969 17.8969 13.2657 17.8457 13.2031C17.7945 13.1405 17.7686 13.0293 17.7686 12.8701C17.7686 12.7108 17.8091 12.4466 17.8887 12.0771C17.9683 11.7074 18.0649 11.3459 18.1787 10.9932L18.3408 10.4814H17.6064L17.3594 10.916C17.3309 10.7512 17.2487 10.6201 17.1123 10.5234C16.9758 10.4267 16.8044 10.3789 16.5996 10.3789C16.2527 10.379 15.9481 10.4673 15.6865 10.6436C15.425 10.8142 15.2201 11.0585 15.0723 11.377C14.93 11.6898 14.8594 12.0544 14.8594 12.4697C14.8595 12.8564 14.9675 13.1579 15.1836 13.374C15.3998 13.5844 15.7012 13.6894 16.0879 13.6895C16.3097 13.6895 16.5061 13.6416 16.6768 13.5449C16.8531 13.4425 16.9923 13.2971 17.0947 13.1094C17.1573 13.3027 17.2768 13.4534 17.4531 13.5615C17.6352 13.6696 17.8544 13.7236 18.1104 13.7236C18.4687 13.7236 18.7815 13.6384 19.0488 13.4678C19.3219 13.2914 19.5328 13.0441 19.6807 12.7256C19.8286 12.4013 19.9023 12.0253 19.9023 11.5986C19.9023 11.0299 19.7714 10.5404 19.5098 10.1309C19.2538 9.71571 18.8838 9.3976 18.4004 9.17578C17.9169 8.95395 17.3453 8.84281 16.6855 8.84277ZM16.668 10.8398C16.7874 10.8398 16.8841 10.9053 16.958 11.0361C17.0319 11.167 17.0693 11.3375 17.0693 11.5479C17.0693 11.8265 17.0267 12.0968 16.9414 12.3584C16.8618 12.6144 16.7537 12.8253 16.6172 12.9902C16.4808 13.1493 16.3413 13.2284 16.1992 13.2285C15.966 13.2285 15.8486 12.9927 15.8486 12.5205C15.8486 12.2361 15.886 11.9629 15.96 11.7012C16.0396 11.4395 16.1424 11.2317 16.2676 11.0781C16.3926 10.9192 16.5259 10.8399 16.668 10.8398ZM8.27246 7.7334C7.29074 7.7334 6.49434 8.52907 6.49414 9.51074C6.49418 10.4926 7.29064 11.2891 8.27246 11.2891C9.25406 11.2888 10.0498 10.4924 10.0498 9.51074C10.0496 8.52923 9.25396 7.73366 8.27246 7.7334Z" fill="#252525"/>
</svg>
