<svg width="24" height="24" viewBox="0 0 24 24" fill="none" xmlns="http://www.w3.org/2000/svg">
<path d="M19.0176 2C20.0509 2 20.8884 2.85254 20.8887 3.9043V20.0957C20.8884 21.1475 20.0509 22 19.0176 22H4.98242C3.94917 21.9999 3.11158 21.1474 3.11133 20.0957V3.9043C3.11157 2.85262 3.94917 2.00014 4.98242 2H19.0176ZM12 12.043C9.23826 12.0431 7.00012 14.2522 7 16.9854V17.4902H17V16.9854C16.9999 14.2521 14.7618 12.043 12 12.043ZM12.0117 6.44336C10.6969 6.44347 9.63094 7.50939 9.63086 8.82422C9.63086 10.1391 10.6968 11.205 12.0117 11.2051C13.3266 11.205 14.3926 10.1391 14.3926 8.82422C14.3925 7.50939 13.3265 6.44348 12.0117 6.44336Z" fill="#252525"/>
</svg>
