<svg width="16" height="16" viewBox="0 0 16 16" fill="none" xmlns="http://www.w3.org/2000/svg">
<path d="M8 16C3.58172 16 0 12.4183 0 8C0 3.58172 3.58172 0 8 0C12.4183 0 16 3.58172 16 8C16 12.4183 12.4183 16 8 16ZM8 5.7002C8.71787 5.7002 9.29965 5.11823 9.2998 4.40039C9.2998 3.68242 8.71797 3.09961 8 3.09961C7.28203 3.09961 6.7002 3.68242 6.7002 4.40039C6.70035 5.11823 7.28213 5.7002 8 5.7002ZM9 12.9004C9.11042 12.9004 9.20014 12.8106 9.2002 12.7002V7.09961C9.19993 6.98938 9.11029 6.90039 9 6.90039L7 6.90039C6.88971 6.90039 6.80007 6.98938 6.7998 7.09961L6.7998 12.7002C6.79986 12.8106 6.88958 12.9004 7 12.9004H9Z" fill="#C1C1C1"/>
</svg>
