<svg width="110" height="18" viewBox="0 0 110 18" fill="none" xmlns="http://www.w3.org/2000/svg">
<path d="M108.851 5.56364C108.136 4.90909 107.312 4.63636 106.323 4.63636C105.554 4.63636 104.84 4.85455 104.07 5.23636C103.356 5.61818 102.642 6.32727 102.037 7.25455V4.90909H98.6305V17.3455H102.037V9.49091C102.642 8.61818 103.136 8.01818 103.686 7.69091C104.18 7.36364 104.675 7.25455 105.114 7.25455C105.389 7.25455 105.609 7.30909 105.829 7.41818C106.048 7.52727 106.213 7.74545 106.323 7.96364C106.433 8.18182 106.543 8.67273 106.543 9.32727V17.2909H109.95V8.56364C109.895 7.2 109.565 6.21818 108.851 5.56364ZM91.2126 14.2364C90.7181 15.0545 90.0038 15.4909 89.0697 15.4909C88.1356 15.4909 87.4213 15.1091 86.9267 14.2364C86.4322 13.4182 86.2124 12.3818 86.2124 11.0727C86.2124 9.81818 86.4322 8.78182 86.9267 7.96364C87.4213 7.14545 88.1356 6.70909 89.0697 6.70909C90.0038 6.70909 90.7181 7.14545 91.2126 7.96364C91.7072 8.78182 91.9269 9.81818 91.9269 11.0727C91.9269 12.3818 91.7072 13.4182 91.2126 14.2364ZM95.4985 11.1273C95.4985 9.87273 95.2238 8.78182 94.7293 7.74545C94.2347 6.70909 93.4655 5.94545 92.5314 5.45455C91.5423 4.90909 90.3884 4.63636 89.0147 4.63636C87.6411 4.63636 86.4872 4.90909 85.4981 5.45455C84.5091 6 83.7947 6.76364 83.3002 7.74545C82.8057 8.78182 82.5309 9.87273 82.5309 11.1273C82.5309 12.3818 82.8057 13.4727 83.3002 14.5091C83.7947 15.5455 84.564 16.3091 85.4981 16.8C86.4872 17.3455 87.6411 17.5636 88.9598 17.5636C90.3335 17.5636 91.4874 17.2909 92.4215 16.8C93.4105 16.2545 94.1248 15.4909 94.6194 14.5091C95.2787 13.4727 95.4985 12.3273 95.4985 11.1273ZM76.1571 17.2909H79.5638V4.90909H76.1571V17.2909ZM76.1571 2.78182H79.5638V0H76.1571V2.78182ZM73.135 17.2364V15.2182C72.7503 15.3273 72.3657 15.3818 72.091 15.3818C71.4865 15.3818 70.992 15.2182 70.7173 14.8909C70.3876 14.5636 70.2227 13.9636 70.2227 13.0909V7.03636H72.9152V4.90909H70.2227V2.4L66.816 2.78182V4.90909H65.3874V6.98182H66.816V13.5273C66.816 14.5636 66.9808 15.3273 67.2556 15.8727C67.5853 16.4182 68.0248 16.8 68.6293 17.1273C69.2337 17.4545 70.1128 17.6182 71.2118 17.6182C71.7063 17.6182 72.3107 17.5091 73.135 17.2364ZM58.464 14.8909C57.9145 14.5636 57.4749 14.0727 57.2002 13.3636C56.8705 12.6545 56.7606 11.8909 56.7606 11.0727C56.7606 10.0364 57.0354 9.05454 57.5299 8.18182C58.0794 7.30909 58.9036 6.87273 60.0575 6.87273C60.8817 6.87273 61.9257 7.09091 63.2994 7.58182V5.12727C61.9806 4.8 60.8267 4.63636 59.8377 4.63636C57.6398 4.63636 55.9914 5.23636 54.8375 6.43636C53.7385 7.63636 53.1341 9.16364 53.1341 11.1273C53.1341 12.9273 53.6836 14.5091 54.7276 15.7636C55.7716 17.0182 57.3651 17.6727 59.508 17.6727C60.7168 17.6727 61.9806 17.5091 63.3543 17.1273V14.7273C62.3103 15.1636 61.2663 15.3818 60.2773 15.3818C59.6179 15.3818 59.0135 15.2182 58.464 14.8909ZM42.3644 17.6182C43.1337 17.6182 43.9029 17.4 44.6173 17.0182C45.3316 16.6364 46.0459 15.9273 46.6503 15V17.3455H50.0021V4.90909H46.5954V12.7091C45.991 13.5818 45.4964 14.1818 44.9469 14.5091C44.4524 14.8364 43.9579 14.9455 43.5183 14.9455C43.2436 14.9455 43.0238 14.8909 42.804 14.7818C42.5842 14.6727 42.4194 14.4545 42.3095 14.2364C42.1996 14.0182 42.1446 13.5273 42.1446 12.8727V4.90909H38.7379V13.6909C38.7379 15.0545 39.0676 16.0364 39.7819 16.6909C40.5512 17.2909 41.3754 17.6182 42.3644 17.6182ZM25.056 10.6364L27.6935 3.92727L30.276 10.6364H25.056ZM26.4297 0.545455L19.836 17.2909H22.3636L24.1219 12.8182H31.1002L32.8585 17.2909H36.4851L29.9463 0.545455H26.4297ZM6.86842 8.07273L12.5829 0.545455H9.67074L3.40674 8.67273V0.545455H0V17.2909H3.40674V9.05455L9.61579 17.2909H13.9017L6.86842 8.07273Z" fill="black"/>
</svg>
