<svg width="16" height="16" viewBox="0 0 16 16" fill="none" xmlns="http://www.w3.org/2000/svg">
<path d="M8 0C12.4183 0 16 3.58172 16 8C16 12.4183 12.4183 16 8 16C3.58172 16 0 12.4183 0 8C0 3.58172 3.58172 0 8 0ZM8 10.2998C7.28213 10.2998 6.70035 10.8818 6.7002 11.5996C6.7002 12.3176 7.28203 12.9004 8 12.9004C8.71797 12.9004 9.2998 12.3176 9.2998 11.5996C9.29965 10.8818 8.71787 10.2998 8 10.2998ZM7 3.09961C6.88958 3.09961 6.79986 3.18939 6.7998 3.2998V8.90039C6.80007 9.01062 6.88971 9.09961 7 9.09961H9C9.11029 9.09961 9.19993 9.01062 9.2002 8.90039V3.2998C9.20014 3.18939 9.11042 3.09961 9 3.09961H7Z" fill="#F76E33"/>
</svg>
