<svg width="24" height="24" viewBox="0 0 24 24" fill="none" xmlns="http://www.w3.org/2000/svg">
<path d="M11.999 2C16.1999 2 19.6094 5.40944 19.6094 9.61035C19.6094 10.7671 19.3457 11.8634 18.8789 12.8477C16.9728 17.5417 12.0075 21.9924 11.999 22C11.9857 21.9881 7.02433 17.5394 5.11914 12.8477C4.65237 11.8634 4.38867 10.7671 4.38867 9.61035C4.38868 5.40944 7.79811 2.00001 11.999 2ZM11.999 7.0332C10.5983 7.03345 9.46308 8.16862 9.46289 9.56934C9.46289 10.9702 10.5982 12.1062 11.999 12.1064C13.4001 12.1064 14.5361 10.9704 14.5361 9.56934C14.5359 8.16847 13.3999 7.0332 11.999 7.0332Z" fill="#252525"/>
</svg>
