<svg width="16" height="16" viewBox="0 0 16 16" fill="none" xmlns="http://www.w3.org/2000/svg">
<path d="M8 0C12.4183 0 16 3.58172 16 8C16 12.4183 12.4183 16 8 16C3.58172 16 0 12.4183 0 8C0 3.58172 3.58172 0 8 0ZM7.90039 10.5C7.18243 10.5 6.59963 11.0819 6.59961 11.7998C6.59961 12.5178 7.18242 13.0996 7.90039 13.0996C8.61818 13.0994 9.2002 12.5176 9.2002 11.7998C9.20018 11.082 8.61817 10.5002 7.90039 10.5ZM8.02441 3C7.41195 3.00006 6.85458 3.1026 6.35352 3.30859C5.85244 3.51192 5.44926 3.83659 5.14648 4.28125C4.8456 4.72543 4.69171 5.29725 4.67773 5.98926L4.67578 6.0918H7.19141L7.19531 5.99512C7.20412 5.73974 7.24958 5.54442 7.32617 5.40332L7.32715 5.40234C7.40622 5.25257 7.50525 5.14752 7.62207 5.08105C7.74843 5.01189 7.88232 4.97762 8.02441 4.97754C8.20752 4.97754 8.35025 5.01376 8.45801 5.0791L8.46191 5.08105C8.5727 5.14218 8.65609 5.23582 8.71191 5.36719L8.71289 5.37012C8.7733 5.50306 8.8066 5.68097 8.80664 5.90918C8.80664 6.08575 8.76862 6.25155 8.69336 6.40625C8.61658 6.56393 8.50465 6.72193 8.35547 6.87988C8.20386 7.04041 8.0223 7.20905 7.81055 7.38477L7.80859 7.38574C7.55991 7.60162 7.36131 7.83802 7.21387 8.09473C7.06652 8.35141 6.96247 8.64045 6.90137 8.95996V8.96094C6.87157 9.12732 6.85085 9.30714 6.83691 9.5H9.03809C9.06216 9.38159 9.09156 9.27459 9.12988 9.17969C9.21809 8.9572 9.38622 8.73226 9.64258 8.50684L9.64453 8.50586C9.95061 8.22262 10.2275 7.9571 10.4746 7.70996C10.7319 7.4527 10.9368 7.17521 11.0879 6.87793C11.2467 6.56969 11.3242 6.21124 11.3242 5.80664C11.3242 5.20462 11.1931 4.69084 10.9258 4.27051C10.6588 3.84639 10.2756 3.52773 9.78027 3.31543C9.28638 3.10377 8.69968 3 8.02441 3Z" fill="#C1C1C1"/>
</svg>
