<svg width="24" height="24" viewBox="0 0 24 24" fill="none" xmlns="http://www.w3.org/2000/svg">
<path d="M5.46875 2.5C3.94806 4.23219 3.09375 6.58156 3.09375 9.03125C3.09375 11.4809 3.94806 13.8303 5.46875 15.5625" stroke="#252525" stroke-width="2"/>
<path d="M8.08594 5.46875C7.32559 6.41358 6.89844 7.69505 6.89844 9.03125C6.89844 10.3674 7.32559 11.6489 8.08594 12.5938" stroke="#252525" stroke-width="2"/>
<circle cx="12" cy="9.03125" r="1.78125" transform="rotate(90 12 9.03125)" fill="#252525"/>
<path d="M18.5313 2.5C20.0519 4.23219 20.9062 6.58156 20.9062 9.03125C20.9063 11.4809 20.0519 13.8303 18.5313 15.5625" stroke="#252525" stroke-width="2"/>
<path d="M15.9141 5.46875C16.6744 6.41358 17.1016 7.69505 17.1016 9.03125C17.1016 10.3674 16.6744 11.6489 15.9141 12.5938" stroke="#252525" stroke-width="2"/>
<path d="M6.0625 21.5L12 14.375L17.9375 21.5H6.0625Z" fill="#252525"/>
</svg>
